<svg width="70" height="70" viewBox="0 0 70 70" fill="none" xmlns="http://www.w3.org/2000/svg">
<path fill-rule="evenodd" clip-rule="evenodd" d="M66.5937 35C66.5937 52.6747 52.3593 67 34.7968 67C17.2344 67 3 52.6747 3 35C3 17.3253 17.2344 3 34.7968 3C52.3593 3 66.5937 17.3253 66.5937 35Z" fill="white"/>
<path d="M34.7968 68.5C53.1967 68.5 68.0937 53.4941 68.0937 35C68.0937 16.5059 53.1967 1.5 34.7968 1.5C16.397 1.5 1.5 16.5059 1.5 35C1.5 53.4941 16.397 68.5 34.7968 68.5Z" stroke="white" stroke-opacity="0.3" stroke-width="3" stroke-linecap="round" stroke-linejoin="round"/>
<path fill-rule="evenodd" clip-rule="evenodd" d="M31.0555 24.5396L44.7705 32.7031C46.5052 33.7342 46.5052 36.2622 44.7705 37.2933L31.0555 45.4569C29.289 46.5093 27.0562 45.2258 27.0562 43.16V26.8364C27.0562 24.7707 29.289 23.4871 31.0555 24.5396Z" fill="#060608"/>
</svg>
