<svg width="43" height="32" viewBox="0 0 43 32" fill="none" xmlns="http://www.w3.org/2000/svg">
<path d="M41.9476 24.4913C41.1203 25.5134 39.0946 26.2419 39.0946 26.2419L24.0277 31.5445V27.6329L35.1163 23.7609C36.3744 23.3205 36.5668 22.6955 35.5453 22.368C34.5238 22.0386 32.675 22.1327 31.415 22.5769L24.0277 25.1256V21.0692L24.4529 20.9261C24.4529 20.9261 26.5882 20.1864 29.5893 19.8607C32.5923 19.5369 36.2686 19.9059 39.1543 20.9769C42.4054 21.984 42.7709 23.4692 41.9476 24.4913ZM25.4609 17.8334V7.83435C25.4609 6.65976 25.2397 5.57929 24.1143 5.27435C23.2544 5.00329 22.7196 5.78635 22.7196 6.95906V32L15.8267 29.856V0C18.7566 0.532706 23.0274 1.79388 25.3224 2.55059C31.161 4.51388 33.1406 6.95906 33.1406 12.4649C33.1406 17.8315 29.7586 19.8664 25.4609 17.8334ZM3.17801 27.2264C-0.161641 26.304 -0.717608 24.384 0.804087 23.2791C2.21036 22.2588 4.60351 21.4908 4.60351 21.4908L14.4878 18.0461V21.9727L7.37373 24.4668C6.11751 24.9073 5.92514 25.5322 6.94473 25.8598C7.96817 26.1892 9.81691 26.0951 11.075 25.6527L14.4878 24.4405V27.9511L13.8068 28.064C10.394 28.6099 6.76005 28.3821 3.17801 27.2264Z" fill="#F2F2FF"/>
</svg>
